<svg width="24" height="24" viewBox="0 0 24 24" xmlns="http://www.w3.org/2000/svg"><title>contactually-cog--24</title><g fill="none" fill-rule="evenodd"><path d="M23.836 9.869l-.91-2.914-2.026.117a10.335 10.335 0 0 0-.647-1.024l.94-1.823-2.244-2.069-1.717 1.132a10.312 10.312 0 0 0-1.057-.55l-.098-2.07L13.097 0l-.927 1.848c-.391-.006-.77.057-1.166.098L9.893.24l-2.914.91.107 2.025c-.345.192-.684.38-1 .607l-1.858-.967-2.07 2.24 1.14 1.729c-.202.338-.385.684-.547 1.04l-2.083.1L0 10.902l1.842.923c-.007.396.035.784.074 1.183l-1.712 1.11.91 2.914 2.014-.112c.196.356.396.701.63 1.026l-.947 1.826 2.242 2.07 1.694-1.116c.348.21.71.4 1.08.569l.098 2.035 2.978.669.902-1.8c.41.01.827.004 1.24-.038l1.097 1.712 2.915-.91-.121-2.016c.366-.2.715-.43 1.048-.67l1.792.92 2.068-2.246-1.107-1.682c.213-.354.404-.72.573-1.096l2.022-.097.668-2.98-1.806-.905a9.894 9.894 0 0 0-.062-1.225l1.704-1.098" fill="#F17461"/><path d="M8.215 12.15a3.686 3.686 0 0 1 3.67-3.694c2.03-.007 3.688 1.638 3.694 3.544h2.456c-.011-3.267-2.775-6.011-6.16-6a6.145 6.145 0 0 0-6.115 6.16c.012 3.385 2.775 6.128 6.24 6.115v2.105l4.299-3.698L12 13.015v2.806c-2.12.007-3.778-1.64-3.785-3.67z" fill="#FFF"/></g></svg>